<mxfile host="Electron" modified="2024-05-09T22:37:51.860Z" agent="Mozilla/5.0 (Windows NT 10.0; Win64; x64) AppleWebKit/537.36 (KHTML, like Gecko) draw.io/24.2.5 Chrome/120.0.6099.109 Electron/28.1.0 Safari/537.36" etag="ap9kVKDFNBbA8Gbs7qPi" version="24.2.5" type="device">
  <diagram name="Page-1" id="Zg8wSaPWUw2cjqLABUwX">
    <mxGraphModel dx="579" dy="690" grid="1" gridSize="10" guides="1" tooltips="1" connect="1" arrows="1" fold="1" page="1" pageScale="1" pageWidth="850" pageHeight="1100" math="0" shadow="0">
      <root>
        <mxCell id="0" />
        <mxCell id="1" parent="0" />
        <mxCell id="5xwUs0COsxmqJbH8221O-6" value="" style="edgeStyle=orthogonalEdgeStyle;rounded=0;orthogonalLoop=1;jettySize=auto;html=1;entryX=0.51;entryY=0.027;entryDx=0;entryDy=0;entryPerimeter=0;" edge="1" parent="1" source="5xwUs0COsxmqJbH8221O-1" target="5xwUs0COsxmqJbH8221O-3">
          <mxGeometry relative="1" as="geometry">
            <Array as="points">
              <mxPoint x="305" y="100" />
              <mxPoint x="306" y="100" />
            </Array>
          </mxGeometry>
        </mxCell>
        <mxCell id="5xwUs0COsxmqJbH8221O-1" value="" style="ellipse;fillColor=strokeColor;html=1;" vertex="1" parent="1">
          <mxGeometry x="290" y="50" width="30" height="30" as="geometry" />
        </mxCell>
        <mxCell id="5xwUs0COsxmqJbH8221O-3" value="ref" style="shape=umlFrame;whiteSpace=wrap;html=1;pointerEvents=0;" vertex="1" parent="1">
          <mxGeometry x="245" y="120" width="120" height="60" as="geometry" />
        </mxCell>
        <mxCell id="5xwUs0COsxmqJbH8221O-8" value="" style="edgeStyle=orthogonalEdgeStyle;rounded=0;orthogonalLoop=1;jettySize=auto;html=1;" edge="1" parent="1" source="5xwUs0COsxmqJbH8221O-4" target="5xwUs0COsxmqJbH8221O-7">
          <mxGeometry relative="1" as="geometry" />
        </mxCell>
        <mxCell id="5xwUs0COsxmqJbH8221O-4" value="Checks Calendar" style="text;html=1;align=center;verticalAlign=middle;resizable=0;points=[];autosize=1;strokeColor=none;fillColor=none;" vertex="1" parent="1">
          <mxGeometry x="245" y="150" width="120" height="30" as="geometry" />
        </mxCell>
        <mxCell id="5xwUs0COsxmqJbH8221O-13" value="" style="edgeStyle=orthogonalEdgeStyle;rounded=0;orthogonalLoop=1;jettySize=auto;html=1;entryX=0.552;entryY=0.007;entryDx=0;entryDy=0;entryPerimeter=0;" edge="1" parent="1" source="5xwUs0COsxmqJbH8221O-7" target="5xwUs0COsxmqJbH8221O-15">
          <mxGeometry relative="1" as="geometry">
            <mxPoint x="305" y="320" as="targetPoint" />
          </mxGeometry>
        </mxCell>
        <mxCell id="5xwUs0COsxmqJbH8221O-7" value="Booking Available" style="rhombus;whiteSpace=wrap;html=1;" vertex="1" parent="1">
          <mxGeometry x="267.5" y="220" width="75" height="55" as="geometry" />
        </mxCell>
        <mxCell id="5xwUs0COsxmqJbH8221O-10" style="edgeStyle=orthogonalEdgeStyle;rounded=0;orthogonalLoop=1;jettySize=auto;html=1;exitX=0;exitY=0.5;exitDx=0;exitDy=0;entryX=0.003;entryY=0.227;entryDx=0;entryDy=0;entryPerimeter=0;" edge="1" parent="1" source="5xwUs0COsxmqJbH8221O-7" target="5xwUs0COsxmqJbH8221O-4">
          <mxGeometry relative="1" as="geometry" />
        </mxCell>
        <mxCell id="5xwUs0COsxmqJbH8221O-11" value="No" style="text;html=1;align=center;verticalAlign=middle;resizable=0;points=[];autosize=1;strokeColor=none;fillColor=none;" vertex="1" parent="1">
          <mxGeometry x="190" y="198" width="40" height="30" as="geometry" />
        </mxCell>
        <mxCell id="5xwUs0COsxmqJbH8221O-14" value="Yes" style="text;html=1;align=center;verticalAlign=middle;resizable=0;points=[];autosize=1;strokeColor=none;fillColor=none;" vertex="1" parent="1">
          <mxGeometry x="300" y="288" width="40" height="30" as="geometry" />
        </mxCell>
        <mxCell id="5xwUs0COsxmqJbH8221O-18" value="" style="edgeStyle=orthogonalEdgeStyle;rounded=0;orthogonalLoop=1;jettySize=auto;html=1;" edge="1" parent="1" source="5xwUs0COsxmqJbH8221O-15" target="5xwUs0COsxmqJbH8221O-17">
          <mxGeometry relative="1" as="geometry" />
        </mxCell>
        <mxCell id="5xwUs0COsxmqJbH8221O-15" value="ref" style="shape=umlFrame;whiteSpace=wrap;html=1;pointerEvents=0;" vertex="1" parent="1">
          <mxGeometry x="240" y="330" width="120" height="60" as="geometry" />
        </mxCell>
        <mxCell id="5xwUs0COsxmqJbH8221O-16" value="Patient Consulation" style="text;html=1;align=center;verticalAlign=middle;resizable=0;points=[];autosize=1;strokeColor=none;fillColor=none;" vertex="1" parent="1">
          <mxGeometry x="235" y="360" width="130" height="30" as="geometry" />
        </mxCell>
        <mxCell id="5xwUs0COsxmqJbH8221O-17" value="ref" style="shape=umlFrame;whiteSpace=wrap;html=1;pointerEvents=0;" vertex="1" parent="1">
          <mxGeometry x="240" y="470" width="120" height="60" as="geometry" />
        </mxCell>
        <mxCell id="5xwUs0COsxmqJbH8221O-23" style="edgeStyle=orthogonalEdgeStyle;rounded=0;orthogonalLoop=1;jettySize=auto;html=1;" edge="1" parent="1" source="5xwUs0COsxmqJbH8221O-19" target="5xwUs0COsxmqJbH8221O-22">
          <mxGeometry relative="1" as="geometry" />
        </mxCell>
        <mxCell id="5xwUs0COsxmqJbH8221O-19" value="ExaminesPatient" style="text;html=1;align=center;verticalAlign=middle;resizable=0;points=[];autosize=1;strokeColor=none;fillColor=none;" vertex="1" parent="1">
          <mxGeometry x="250" y="500" width="110" height="30" as="geometry" />
        </mxCell>
        <mxCell id="5xwUs0COsxmqJbH8221O-28" style="edgeStyle=orthogonalEdgeStyle;rounded=0;orthogonalLoop=1;jettySize=auto;html=1;" edge="1" parent="1" source="5xwUs0COsxmqJbH8221O-22" target="5xwUs0COsxmqJbH8221O-25">
          <mxGeometry relative="1" as="geometry" />
        </mxCell>
        <mxCell id="5xwUs0COsxmqJbH8221O-22" value="" style="line;strokeWidth=2;html=1;" vertex="1" parent="1">
          <mxGeometry x="225" y="570" width="160" height="20" as="geometry" />
        </mxCell>
        <mxCell id="5xwUs0COsxmqJbH8221O-33" value="" style="edgeStyle=orthogonalEdgeStyle;rounded=0;orthogonalLoop=1;jettySize=auto;html=1;" edge="1" parent="1" source="5xwUs0COsxmqJbH8221O-24" target="5xwUs0COsxmqJbH8221O-32">
          <mxGeometry relative="1" as="geometry" />
        </mxCell>
        <mxCell id="5xwUs0COsxmqJbH8221O-24" value="ref" style="shape=umlFrame;whiteSpace=wrap;html=1;pointerEvents=0;" vertex="1" parent="1">
          <mxGeometry x="125" y="620" width="120" height="60" as="geometry" />
        </mxCell>
        <mxCell id="5xwUs0COsxmqJbH8221O-25" value="ref" style="shape=umlFrame;whiteSpace=wrap;html=1;pointerEvents=0;" vertex="1" parent="1">
          <mxGeometry x="360" y="620" width="120" height="60" as="geometry" />
        </mxCell>
        <mxCell id="5xwUs0COsxmqJbH8221O-26" value="Order Tests" style="text;html=1;align=center;verticalAlign=middle;resizable=0;points=[];autosize=1;strokeColor=none;fillColor=none;" vertex="1" parent="1">
          <mxGeometry x="150" y="650" width="90" height="30" as="geometry" />
        </mxCell>
        <mxCell id="5xwUs0COsxmqJbH8221O-27" value="Write Prescriptions" style="text;html=1;align=center;verticalAlign=middle;resizable=0;points=[];autosize=1;strokeColor=none;fillColor=none;" vertex="1" parent="1">
          <mxGeometry x="365" y="650" width="120" height="30" as="geometry" />
        </mxCell>
        <mxCell id="5xwUs0COsxmqJbH8221O-29" style="edgeStyle=orthogonalEdgeStyle;rounded=0;orthogonalLoop=1;jettySize=auto;html=1;entryX=0.57;entryY=0.013;entryDx=0;entryDy=0;entryPerimeter=0;" edge="1" parent="1" source="5xwUs0COsxmqJbH8221O-22" target="5xwUs0COsxmqJbH8221O-24">
          <mxGeometry relative="1" as="geometry" />
        </mxCell>
        <mxCell id="5xwUs0COsxmqJbH8221O-32" value="ref" style="shape=umlFrame;whiteSpace=wrap;html=1;pointerEvents=0;" vertex="1" parent="1">
          <mxGeometry x="125" y="760" width="120" height="60" as="geometry" />
        </mxCell>
        <mxCell id="5xwUs0COsxmqJbH8221O-36" style="edgeStyle=orthogonalEdgeStyle;rounded=0;orthogonalLoop=1;jettySize=auto;html=1;" edge="1" parent="1" source="5xwUs0COsxmqJbH8221O-34" target="5xwUs0COsxmqJbH8221O-35">
          <mxGeometry relative="1" as="geometry" />
        </mxCell>
        <mxCell id="5xwUs0COsxmqJbH8221O-34" value="Diagnose&amp;nbsp;" style="text;html=1;align=center;verticalAlign=middle;resizable=0;points=[];autosize=1;strokeColor=none;fillColor=none;" vertex="1" parent="1">
          <mxGeometry x="150" y="790" width="80" height="30" as="geometry" />
        </mxCell>
        <mxCell id="5xwUs0COsxmqJbH8221O-39" value="" style="edgeStyle=orthogonalEdgeStyle;rounded=0;orthogonalLoop=1;jettySize=auto;html=1;" edge="1" parent="1" source="5xwUs0COsxmqJbH8221O-35" target="5xwUs0COsxmqJbH8221O-38">
          <mxGeometry relative="1" as="geometry" />
        </mxCell>
        <mxCell id="5xwUs0COsxmqJbH8221O-35" value="" style="line;strokeWidth=2;html=1;" vertex="1" parent="1">
          <mxGeometry x="225" y="880" width="160" height="20" as="geometry" />
        </mxCell>
        <mxCell id="5xwUs0COsxmqJbH8221O-37" style="edgeStyle=orthogonalEdgeStyle;rounded=0;orthogonalLoop=1;jettySize=auto;html=1;entryX=0.75;entryY=0.5;entryDx=0;entryDy=0;entryPerimeter=0;" edge="1" parent="1" source="5xwUs0COsxmqJbH8221O-25" target="5xwUs0COsxmqJbH8221O-35">
          <mxGeometry relative="1" as="geometry" />
        </mxCell>
        <mxCell id="5xwUs0COsxmqJbH8221O-38" value="" style="shape=waypoint;sketch=0;size=6;pointerEvents=1;points=[];fillColor=default;resizable=0;rotatable=0;perimeter=centerPerimeter;snapToPoint=1;verticalAlign=top;strokeWidth=2;labelBackgroundColor=default;spacingTop=8;" vertex="1" parent="1">
          <mxGeometry x="295" y="980" width="20" height="20" as="geometry" />
        </mxCell>
      </root>
    </mxGraphModel>
  </diagram>
</mxfile>
